<mxfile host="app.diagrams.net" modified="2022-07-14T02:06:05.911Z" agent="5.0 (X11; Linux x86_64) AppleWebKit/537.36 (KHTML, like Gecko) Chrome/80.0.3987.132 Safari/537.36" etag="VNda_msyv7DLj4kf9L2h" version="20.0.1" type="github">
  <diagram id="MF_yJ66GgyLXMYje7yGi" name="第 1 页">
    <mxGraphModel dx="1422" dy="761" grid="1" gridSize="10" guides="1" tooltips="1" connect="1" arrows="1" fold="1" page="1" pageScale="1" pageWidth="827" pageHeight="1169" math="0" shadow="0">
      <root>
        <mxCell id="0" />
        <mxCell id="1" parent="0" />
        <mxCell id="jiOzvEtH1P4fc_3GfdQS-1" value="&lt;font style=&quot;font-size: 23px;&quot;&gt;http请求&lt;/font&gt;" style="rounded=0;whiteSpace=wrap;html=1;" vertex="1" parent="1">
          <mxGeometry x="330" y="150" width="130" height="60" as="geometry" />
        </mxCell>
      </root>
    </mxGraphModel>
  </diagram>
</mxfile>
